# xmcd CD database file
#
# Track frame offsets:
#	150
#	18900
#	37875
#	51300
#	71475
#	95250
#	115125
#	138525
#	157425
#	176250
#	197100
#	212175
#	240300
#	252750
#
# Disc length: 3622 seconds
#
# Revision: 0
# Processed by: cddbd v1.5.1PL0 Copyright (c) Steve Scherf et al.
# Submitted via: CDex 1.51
#
DISCID=bf0e240e
DTITLE=Don Vappie - Banjo A La Creole
DYEAR=2005
DGENRE=Jazz
TTITLE0=Coconut Shake
TTITLE1=Ba Mouin En Ti Bo
TTITLE2=Crackerjack
TTITLE3=Grassy Blue
TTITLE4=Careless Love
TTITLE5=Rushin' To Work
TTITLE6=St. Lucia Nights
TTITLE7=Festival
TTITLE8=World is Watiing for the Sunrise
TTITLE9=A Si Pare
TTITLE10=Flying Horses
TTITLE11=Buddy Bolden's Blues
TTITLE12=Funky Banjo
TTITLE13=Call Out March
EXTD=YEAR: 2005
EXTT0=
EXTT1=
EXTT2=
EXTT3=
EXTT4=
EXTT5=
EXTT6=
EXTT7=
EXTT8=
EXTT9=
EXTT10=
EXTT11=
EXTT12=
EXTT13=
PLAYORDER=
